<svg xmlns="http://www.w3.org/2000/svg" viewBox="0 0 1888 1058.5"><defs><style>.a{fill:#dadada;}.b{fill:#959595;stroke:#c6c6c6;stroke-width:2px;opacity:0.287;}</style></defs><g transform="translate(-19 -23)"><rect class="a" width="16" height="27.344" transform="translate(19 944.531)"/><path class="b" d="M0,0V108.363" transform="translate(26.5 971.637)"/><rect class="a" width="16" height="24.344" transform="translate(71 920.531)"/><path class="b" d="M.5,0V135.125" transform="translate(78.5 944.875)"/><rect class="a" width="16" height="14.344" transform="translate(123 906.531)"/><path class="b" d="M.5,0V159.125" transform="translate(130.5 920.875)"/><rect class="a" width="16" height="24.344" transform="translate(175 920.531)"/><path class="b" d="M0,0V135.125" transform="translate(182.5 944.875)"/><rect class="a" width="16" height="27.344" transform="translate(227 944.531)"/><path class="b" d="M.5,0V108.363" transform="translate(234.5 971.637)"/><rect class="a" width="16" height="61.344" transform="translate(279 883.531)"/><path class="b" d="M.5,0V135.125" transform="translate(286.5 944.875)"/><rect class="a" width="16" height="52.344" transform="translate(331 831.531)"/><path class="b" d="M0,0V196.125" transform="translate(338.5 883.875)"/><rect class="a" width="16" height="30.344" transform="translate(383 883.531)"/><path class="b" d="M.5,0V166.3" transform="translate(390.5 913.703)"/><rect class="a" width="16" height="26.344" transform="translate(435 857.531)"/><path class="b" d="M.5,0V196.125" transform="translate(442.5 883.875)"/><rect class="a" width="16" height="15.344" transform="translate(487 857.531)"/><path class="b" d="M.5,0V207.125" transform="translate(494.5 872.875)"/><rect class="a" width="16" height="49.344" transform="translate(539 808.188)"/><path class="b" d="M.5,0V222.469" transform="translate(546.5 857.531)"/><rect class="a" width="16" height="18.344" transform="translate(591 808.531)"/><path class="b" d="M.5,0V254.625" transform="translate(598.5 826.875)"/><rect class="a" width="16" height="72" transform="translate(643 827)"/><path class="b" d="M.5,0V182.5" transform="translate(650.5 899)"/><rect class="a" width="16" height="53" transform="translate(695 846)"/><path class="b" d="M.5,0V182.5" transform="translate(702.5 899)"/><rect class="a" width="16" height="59.638" transform="translate(747 786.362)"/><path class="b" d="M.5,0V235.5" transform="translate(754.5 846)"/><rect class="a" width="16" height="53" transform="translate(799 733)"/><path class="b" d="M0,0V295.5" transform="translate(806.5 786)"/><rect class="a" width="16" height="34" transform="translate(851 699)"/><path class="b" d="M.5,0V348.5" transform="translate(858.5 733)"/><rect class="a" width="16" height="19" transform="translate(903 680)"/><path class="b" d="M.5,0V382.5" transform="translate(910.5 699)"/><rect class="a" width="16" height="93" transform="translate(955 680)"/><path class="b" d="M.5,0V308.5" transform="translate(962.5 773)"/><rect class="a" width="16" height="28" transform="translate(1007 773)"/><path class="b" d="M.5,0V280.5" transform="translate(1014.5 801)"/><rect class="a" width="16" height="57" transform="translate(1059 716)"/><path class="b" d="M.5,0V308.5" transform="translate(1066.5 773)"/><rect class="a" width="16" height="79" transform="translate(1111 637)"/><path class="b" d="M.5,0V365.5" transform="translate(1118.5 716)"/><rect class="a" width="16" height="109" transform="translate(1163 528)"/><path class="b" d="M0,0V444.5" transform="translate(1170.5 637)"/><rect class="a" width="16" height="77" transform="translate(1215 528)"/><path class="b" d="M0,0V476.5" transform="translate(1222.5 605)"/><rect class="a" width="16" height="75" transform="translate(1267 605)"/><path class="b" d="M0,0V401.5" transform="translate(1274.5 680)"/><rect class="a" width="16" height="72" transform="translate(1319 680)"/><path class="b" d="M0,0V329.5" transform="translate(1326.5 752)"/><rect class="a" width="16" height="133" transform="translate(1371 619)"/><path class="b" d="M0,0V329.5" transform="translate(1378.5 752)"/><rect class="a" width="16" height="94" transform="translate(1423 525)"/><path class="b" d="M0,0V462.5" transform="translate(1430.5 619)"/><rect class="a" width="16" height="41" transform="translate(1475 484)"/><path class="b" d="M0,0V556.5" transform="translate(1482.5 525)"/><rect class="a" width="16" height="71" transform="translate(1527 413)"/><path class="b" d="M0,0V597.5" transform="translate(1534.5 484)"/><rect class="a" width="16" height="110" transform="translate(1579 303)"/><path class="b" d="M0,0V668.5" transform="translate(1586.5 413)"/><rect class="a" width="16" height="43" transform="translate(1631 260)"/><path class="b" d="M8.5,0V778.5" transform="translate(1630.5 303)"/><rect class="a" width="16" height="18" transform="translate(1683 242)"/><path class="b" d="M.5,0V821.5" transform="translate(1690.5 260)"/><rect class="a" width="16" height="56" transform="translate(1735 260)"/><path class="b" d="M0,0V765.5" transform="translate(1742.5 316)"/><rect class="a" width="16" height="157" transform="translate(1787 159)"/><path class="b" d="M0,0V765.5" transform="translate(1794.5 316)"/><rect class="a" width="16" height="67" transform="translate(1839 92)"/><path class="b" d="M0,0V922.5" transform="translate(1846.5 159)"/><rect class="a" width="16" height="69" transform="translate(1891 23)"/><path class="b" d="M.5,0V989.5" transform="translate(1898.5 92)"/></g></svg>