<svg xmlns="http://www.w3.org/2000/svg" viewBox="0 0 1888 1058.5"><defs><style>.a{fill:#dadada;}.b{fill:#393939;stroke:#707070;opacity:0.261;}</style></defs><g transform="translate(-19 -93)"><rect class="a" width="16" height="27.344" transform="translate(19 1014.531)"/><path class="b" d="M0,0V62.863" transform="translate(26.5 1041.637)"/><rect class="a" width="16" height="24.344" transform="translate(71 990.531)"/><path class="b" d="M.5,0V89.625" transform="translate(78.5 1014.875)"/><rect class="a" width="16" height="14.344" transform="translate(123 976.531)"/><path class="b" d="M.5,0V113.625" transform="translate(130.5 990.875)"/><rect class="a" width="16" height="24.344" transform="translate(175 990.531)"/><path class="b" d="M0,0V89.625" transform="translate(182.5 1014.875)"/><rect class="a" width="16" height="27.344" transform="translate(227 1014.531)"/><path class="b" d="M0,0V62.863" transform="translate(234.5 1041.637)"/><rect class="a" width="16" height="61.344" transform="translate(279 953.531)"/><path class="b" d="M.5,0V89.625" transform="translate(286.5 1014.875)"/><rect class="a" width="16" height="52.344" transform="translate(331 901.531)"/><path class="b" d="M0,0V150.625" transform="translate(338.5 953.875)"/><rect class="a" width="16" height="30.344" transform="translate(383 953.531)"/><path class="b" d="M0,0V120.8" transform="translate(390.5 983.703)"/><rect class="a" width="16" height="26.344" transform="translate(435 927.531)"/><path class="b" d="M.5,0V150.625" transform="translate(442.5 953.875)"/><rect class="a" width="16" height="15.344" transform="translate(487 927.531)"/><path class="b" d="M.5,0V161.625" transform="translate(494.5 942.875)"/><rect class="a" width="16" height="49.344" transform="translate(539 878.188)"/><path class="b" d="M.5,0V176.969" transform="translate(546.5 927.531)"/><rect class="a" width="16" height="18.344" transform="translate(591 878.531)"/><path class="b" d="M0,0V207.625" transform="translate(598.5 896.875)"/><rect class="a" width="16" height="72" transform="translate(643 897)"/><path class="b" d="M.5,0V182.5" transform="translate(650.5 969)"/><rect class="a" width="16" height="53" transform="translate(695 916)"/><path class="b" d="M.5,0V182.5" transform="translate(702.5 969)"/><rect class="a" width="16" height="59.638" transform="translate(747 856.362)"/><path class="b" d="M.5,0V235.5" transform="translate(754.5 916)"/><rect class="a" width="16" height="53" transform="translate(799 803)"/><path class="b" d="M0,0V295.5" transform="translate(806.5 856)"/><rect class="a" width="16" height="34" transform="translate(851 769)"/><path class="b" d="M.5,0V348.5" transform="translate(858.5 803)"/><rect class="a" width="16" height="19" transform="translate(903 750)"/><path class="b" d="M.5,0V382.5" transform="translate(910.5 769)"/><rect class="a" width="16" height="93" transform="translate(955 750)"/><path class="b" d="M.5,0V308.5" transform="translate(962.5 843)"/><rect class="a" width="16" height="28" transform="translate(1007 843)"/><path class="b" d="M.5,0V280.5" transform="translate(1014.5 871)"/><rect class="a" width="16" height="57" transform="translate(1059 786)"/><path class="b" d="M.5,0V308.5" transform="translate(1066.5 843)"/><rect class="a" width="16" height="79" transform="translate(1111 707)"/><path class="b" d="M.5,0V365.5" transform="translate(1118.5 786)"/><rect class="a" width="16" height="109" transform="translate(1163 598)"/><path class="b" d="M0,0V444.5" transform="translate(1170.5 707)"/><rect class="a" width="16" height="77" transform="translate(1215 598)"/><path class="b" d="M0,0V476.5" transform="translate(1222.5 675)"/><rect class="a" width="16" height="75" transform="translate(1267 675)"/><path class="b" d="M0,0V401.5" transform="translate(1274.5 750)"/><rect class="a" width="16" height="72" transform="translate(1319 750)"/><path class="b" d="M0,0V329.5" transform="translate(1326.5 822)"/><rect class="a" width="16" height="133" transform="translate(1371 689)"/><path class="b" d="M0,0V329.5" transform="translate(1378.5 822)"/><rect class="a" width="16" height="94" transform="translate(1423 595)"/><path class="b" d="M0,0V462.5" transform="translate(1430.5 689)"/><rect class="a" width="16" height="41" transform="translate(1475 554)"/><path class="b" d="M0,0V556.5" transform="translate(1482.5 595)"/><rect class="a" width="16" height="71" transform="translate(1527 483)"/><path class="b" d="M0,0V597.5" transform="translate(1534.5 554)"/><rect class="a" width="16" height="110" transform="translate(1579 373)"/><path class="b" d="M0,0V668.5" transform="translate(1586.5 483)"/><rect class="a" width="16" height="43" transform="translate(1631 330)"/><path class="b" d="M8.5,0V778.5" transform="translate(1630.5 373)"/><rect class="a" width="16" height="18" transform="translate(1683 312)"/><path class="b" d="M.5,0V821.5" transform="translate(1690.5 330)"/><rect class="a" width="16" height="56" transform="translate(1735 330)"/><path class="b" d="M0,0V765.5" transform="translate(1742.5 386)"/><rect class="a" width="16" height="157" transform="translate(1787 229)"/><path class="b" d="M0,0V765.5" transform="translate(1794.5 386)"/><rect class="a" width="16" height="67" transform="translate(1839 162)"/><path class="b" d="M0,0V922.5" transform="translate(1846.5 229)"/><rect class="a" width="16" height="69" transform="translate(1891 93)"/><path class="b" d="M.5,0V989.5" transform="translate(1898.5 162)"/></g></svg>