<svg xmlns="http://www.w3.org/2000/svg" viewBox="0 0 226.17 99.62"><defs><style>.a,.d{fill:#fff;}.a{stroke:#707070;stroke-width:2px;}.b{fill:#7d7d7d;font-size:19px;font-family:Avenir-Heavy, Avenir;font-weight:800;letter-spacing:0.01em;opacity:0.6;}.c{fill:#1c75bc;stroke-width:3px;}.c,.d{stroke:#797e83;}.d{fill-rule:evenodd;}</style></defs><g transform="translate(-1457.596 -414.185)"><path class="a" d="M3.765,56.042s8.453-6.743,6.452-14.249H4a4,4,0,0,1-4-4V4A4,4,0,0,1,4,0H162.266a4,4,0,0,1,4,4V37.794a4,4,0,0,1-4,4H18.756a25.76,25.76,0,0,1-2.681,8.16c-1.513,2.8-4.171,5.656-8.4,6.089-3.2.327-4.7.436-5.277.436C1.24,56.479,3.765,56.042,3.765,56.042Z" transform="translate(1516.5 415.185)"/><text class="b" transform="translate(1532.948 441.999)"><tspan x="0" y="0">It is moaning !</tspan></text><circle class="c" cx="26.604" cy="26.604" r="26.604" transform="translate(1459.096 459.096)"/><path class="d" d="M40.622,15.08,37.233,25.69s-2.09,5.289-7.063,5.289H6.195l1.71-5.289H29.632l3.42-10.61h-21.7L13.036,9.79H36.885C42.111,9.79,40.622,15.08,40.622,15.08ZM7.05,17.93H19.909l-1.647,4.909H5.371Z" transform="translate(1462.656 465.584)"/></g></svg>