<svg xmlns="http://www.w3.org/2000/svg" viewBox="0 0 230.666 103.62"><defs><style>.a{fill:#627eea;stroke-width:3px;}.a,.b,.c,.d,.e{stroke:#797e83;}.b{fill:#c5c6dd;}.c,.f{fill:#fff;}.d{fill:#939dc3;}.e{fill:#ccd1d9;}.f{stroke:#707070;stroke-width:2px;}.g{fill:#7d7d7d;font-size:19px;font-family:Avenir-Heavy, Avenir;font-weight:800;letter-spacing:0.01em;opacity:0.6;}</style></defs><g transform="translate(-1194.1 -253.185)"><ellipse class="a" cx="26.377" cy="26.377" rx="26.377" ry="26.377" transform="translate(1195.6 302.55)"/><g transform="translate(1210.437 309.144)"><path class="b" d="M7.5,0V14.623l12.359,5.523Z" transform="translate(4.863)"/><path class="c" d="M12.361,0,0,20.145l12.361-5.523Z"/><path class="b" d="M7.5,20.791v9.936l12.368-17.11Z" transform="translate(4.863 8.831)"/><path class="c" d="M12.361,30.726V20.789L0,13.616Z" transform="translate(0 8.831)"/><path class="d" d="M7.5,21.568l12.359-7.176L7.5,8.872Z" transform="translate(4.863 5.754)"/><path class="e" d="M0,14.391l12.361,7.176V8.872Z" transform="translate(0 5.754)"/></g><path class="f" d="M3.765,56.042s8.453-6.743,6.452-14.249H4a4,4,0,0,1-4-4V4A4,4,0,0,1,4,0H162.266a4,4,0,0,1,4,4V37.794a4,4,0,0,1-4,4H18.756a25.76,25.76,0,0,1-2.681,8.16c-1.513,2.8-4.171,5.656-8.4,6.089-3.2.327-4.7.436-5.277.436C1.24,56.479,3.765,56.042,3.765,56.042Z" transform="translate(1257.5 254.185)"/><text class="g" transform="translate(1273.948 280.999)"><tspan x="0" y="0">should I sell ?</tspan></text></g></svg>