<svg xmlns="http://www.w3.org/2000/svg" viewBox="0 0 175.582 41.631"><defs><style>.a{fill:#0ecbb1;}</style></defs><g transform="translate(-323.083 -255.907)"><path class="a" d="M1806.005,7.717,1811.747,0H1796.6L1790,8.824a10.949,10.949,0,0,1,5.354-1.108H1806Z" transform="translate(-1313.082 255.907)"/><g transform="translate(323.083 255.907)"><path class="a" d="M152.848,0H88.228L70.077,25.99,56.573,6.73C53.7,2.449,48.29,0,41.115,0H21.425V.008C9.11.2,0,8.817,0,20.815,0,32.95,9.316,41.631,21.787,41.631c6.3,0,11.628-2.045,15.392-5.835l-4.8-6.815A12.823,12.823,0,0,1,22.3,33.695,12.351,12.351,0,0,1,9.419,20.815,12.309,12.309,0,0,1,21.7,7.949H40.65c5.784,0,8.646,2.407,8.646,6.9,0,4.444-2.922,7.132-8.714,7.132h-4.5L49.468,40.926H59.644L50.465,27.768a13.633,13.633,0,0,0,6.35-5.251l7.872,11.172-5.043,7.237H70.42L93.711,7.717h5.371c5.784,0,8.714,2.63,8.714,7.132,0,4.444-2.922,7.073-8.714,7.073H92.224l-5.663,7.717H99.607c10.931,0,17.77-5.672,17.77-14.79a14.76,14.76,0,0,0-1.7-7.132h9.179V40.926l9.471-12.169V7.717h12.5Z" transform="translate(0)"/><path class="a" d="M1665.1,138.3c-4.486-1.023-8.353-1.908-8.353-4.727a4.2,4.2,0,0,1,.048-.577l-6.407,8.583c2.94,2.612,7.426,3.662,11.335,4.563,4.495,1.04,8.371,1.943,8.371,4.8,0,2.562-2.612,3.971-7.349,3.971a23.283,23.283,0,0,1-11.6-3.231l-4.735,6.36.094.077c3.618,2.8,9.969,4.607,16.182,4.607,5.328,0,9.729-1.272,12.728-3.687a11.065,11.065,0,0,0,4.231-8.766C1679.63,141.629,1671.567,139.78,1665.1,138.3Z" transform="translate(-1504.904 -121.569)"/></g></g></svg>