<svg xmlns="http://www.w3.org/2000/svg" viewBox="0 0 513 312"><defs><style>.a{fill:#fff;}.b,.j{fill:#4d4d4d;}.c,.d,.e{fill:#494949;}.d{opacity:0.123;}.e{opacity:0.117;}.f{fill:none;stroke:#d0d0d0;stroke-width:0.5px;}.g{fill:#1ef4cf;}.h{fill:#ef6969;}.i,.j{stroke:none;}</style></defs><g transform="translate(-1838 -41)"><g class="a" transform="translate(1838 41)"><path class="i" d="M 503 271.5 L 10 271.5 C 5.313066482543945 271.5 1.5 267.6869201660156 1.5 263 L 1.5 10 C 1.5 5.313066482543945 5.313066482543945 1.5 10 1.5 L 503 1.5 C 507.6869201660156 1.5 511.5 5.313066482543945 511.5 10 L 511.5 263 C 511.5 267.6869201660156 507.6869201660156 271.5 503 271.5 Z"/><path class="j" d="M 503 270 C 506.8598022460938 270 510 266.8598022460938 510 263 L 510 10 C 510 6.140200138092041 506.8598022460938 3 503 3 L 10 3 C 6.140200138092041 3 3 6.140200138092041 3 10 L 3 263 C 3 266.8598022460938 6.140200138092041 270 10 270 L 503 270 M 503 273 L 10 273 C 4.477133274078369 273 0 268.5228576660156 0 263 L 0 10 C 0 4.477133274078369 4.477133274078369 0 10 0 L 503 0 C 508.5228576660156 0 513 4.477133274078369 513 10 L 513 263 C 513 268.5228576660156 508.5228576660156 273 503 273 Z"/></g><rect class="b" width="135" height="32" transform="translate(2027 313)"/><rect class="b" width="258" height="8" transform="translate(1966 345)"/><rect class="c" width="49" height="240" transform="translate(1854 57)"/><rect class="d" width="19" height="164" rx="9.5" transform="translate(2071.5 274.5) rotate(90)"/><rect class="d" width="9" height="106" rx="4.5" transform="translate(2013.5 65.5) rotate(90)"/><rect class="d" width="9" height="182" rx="4.5" transform="translate(2089.5 91.5) rotate(90)"/><rect class="d" width="9" height="42" rx="4.5" transform="translate(1949.5 117.5) rotate(90)"/><rect class="d" width="9" height="63" rx="4.5" transform="translate(1970.5 143.5) rotate(90)"/><rect class="d" width="9" height="143" rx="4.5" transform="translate(2050.5 169.5) rotate(90)"/><rect class="d" width="9" height="117" rx="4.5" transform="translate(2024.5 195.5) rotate(90)"/><rect class="d" width="9" height="156" rx="4.5" transform="translate(2063.5 221.5) rotate(90)"/><rect class="d" width="9" height="106" rx="4.5" transform="translate(2013.5 250.5) rotate(90)"/><rect class="e" width="228" height="240" transform="translate(2106 57)"/><rect class="d" width="19" height="24" rx="9.5" transform="translate(2101.5 274.5) rotate(90)"/><line class="f" y2="62" transform="translate(2141.5 141.5)"/><line class="f" y2="37" transform="translate(2126 166.5)"/><line class="f" y2="73" transform="translate(2157.5 130.5)"/><line class="f" y2="58" transform="translate(2173.5 145.5)"/><line class="f" y2="49" transform="translate(2189.5 154.5)"/><line class="f" y2="61" transform="translate(2205.5 142.5)"/><line class="f" y2="83" transform="translate(2221.5 120.5)"/><line class="f" y2="72" transform="translate(2237.5 131.5)"/><line class="f" y2="56" transform="translate(2253.5 147.5)"/><line class="f" y2="46" transform="translate(2269.5 157.5)"/><line class="f" y2="56" transform="translate(2285.5 147.5)"/><line class="f" y2="77" transform="translate(2301.5 126.5)"/><line class="f" y2="86" transform="translate(2317.5 117.5)"/><rect class="g" width="4.981" height="9.962" rx="2.49" transform="translate(2144.295 142.095) rotate(180)"/><rect class="g" width="4.981" height="24.905" rx="2.49" transform="translate(2128.356 167) rotate(180)"/><rect class="h" width="4.981" height="14.943" rx="2.49" transform="translate(2176.173 147.076) rotate(180)"/><rect class="h" width="4.981" height="8.966" rx="2.49" transform="translate(2192.112 156.042) rotate(180)"/><rect class="g" width="4.981" height="23.909" rx="2.49" transform="translate(2208.052 147.076) rotate(180)"/><rect class="g" width="4.981" height="11.954" rx="2.49" transform="translate(2223.99 123.168) rotate(180)"/><rect class="g" width="4.981" height="22.912" rx="2.49" transform="translate(2239.93 134.126) rotate(180)"/><rect class="g" width="4.981" height="15.905" rx="2.49" transform="translate(2255.869 150) rotate(180)"/><path class="h" d="M2.49,0a2.49,2.49,0,0,1,2.49,2.49V7.414A2.49,2.49,0,0,1,0,7.414V2.49A2.49,2.49,0,0,1,2.49,0Z" transform="translate(2271.808 160) rotate(180)"/><rect class="g" width="4.981" height="19.905" rx="2.49" transform="translate(2287.747 150) rotate(180)"/><rect class="g" width="4.981" height="10.905" rx="2.49" transform="translate(2303.686 130.095) rotate(180)"/><rect class="g" width="4.981" height="37.905" rx="2.49" transform="translate(2319.625 119.095) rotate(180)"/><rect class="g" width="4.981" height="14.943" rx="2.49" transform="translate(2160.234 132.133) rotate(180)"/></g></svg>